<!-- Generator: Adobe Illustrator 21.0.0, SVG Export Plug-In  -->
<svg version="1.1"
     xmlns="http://www.w3.org/2000/svg" xmlns:xlink="http://www.w3.org/1999/xlink" xmlns:a="http://ns.adobe.com/AdobeSVGViewerExtensions/3.0/"
     x="0px" y="0px" width="60px" height="64px" viewBox="0 0 60 64" style="enable-background:new 0 0 60 64;" xml:space="preserve">
    <defs>
        <rect id="money-box-ref" width="60" height="64"/>
    </defs>
    <clipPath id="SVGID_2_">
        <use xlink:href="#money-box-ref"  style="overflow:visible;"/>
    </clipPath>
    <path d="M22,42c-2.2,0-4-1.8-4-4h2c0,1.1,0.9,2,2,2c1.1,0,2-0.9,2-2c0-0.6-1.4-1.6-2.4-2.1C21,35.6,18,34.2,18,32
        c0-2.2,1.8-4,4-4s4,1.8,4,4h-2c0-1.1-0.9-2-2-2c-1.1,0-2,0.9-2,2c0,0.6,1.4,1.6,2.4,2.1C23,34.4,26,35.8,26,38
        C26,40.2,24.2,42,22,42"/>
    <rect x="21" y="26" width="2" height="3"/>
    <rect x="21" y="41" width="2" height="3"/>
    <rect x="28" y="34" width="2" height="2"/>
    <rect x="14" y="34" width="2" height="2"/>
    <path d="M26,64H7c-3.9,0-7-3.1-7-7V41c0-17.6,7.7-21.8,12.8-24.5c1.4-0.8,2.7-1.4,3.5-2.2l1.4,1.4
        c-1,1-2.4,1.7-3.9,2.6C8.8,20.9,2,24.6,2,41v16c0,2.8,2.2,5,5,5h19V64z"/>
    <path d="M44,40h-2c0-16.2-6.7-19.4-11.5-21.7c-1.6-0.8-3.1-1.5-4.2-2.6l1.4-1.4c0.8,0.8,2.1,1.4,3.6,2.2
        C36.4,18.9,44,22.5,44,40"/>
    <path d="M27,16H17c-1.1,0-2-0.9-2-2v-2c0-1.1,0.9-2,2-2h10c1.1,0,2,0.9,2,2v2C29,15.1,28.1,16,27,16 M17,12v2h10l0-2
        H17z"/>
    <path d="M26,12h-8c-0.4,0-0.7-0.2-0.9-0.6l-4-8c-0.2-0.5,0-1.1,0.4-1.3l4-2c0.3-0.1,0.6-0.1,0.9,0L22,1.9l3.6-1.8
        c0.3-0.1,0.6-0.1,0.9,0l4,2c0.5,0.2,0.7,0.8,0.4,1.3l-4,8C26.7,11.8,26.4,12,26,12 M18.6,10h6.8l3.3-6.6L26,2.1l-3.6,1.8
        c-0.3,0.1-0.6,0.1-0.9,0L18,2.1l-2.7,1.3L18.6,10z"/>
    <path d="M28,14v-2c1.7,0,3-1.3,3-3h2C33,11.8,30.8,14,28,14"/>
    <path d="M16,14c-2.8,0-5-2.2-5-5h2c0,1.7,1.3,3,3,3V14z"/>
    <path d="M22,48c-7.2,0-13-5.8-13-13s5.8-13,13-13s13,5.8,13,13S29.2,48,22,48 M22,24c-6.1,0-11,4.9-11,11s4.9,11,11,11
        s11-4.9,11-11S28.1,24,22,24"/>
    <path d="M38,64h-8c-1.1,0-2-0.9-2-2v-2c0-1.1,0.9-2,2-2h8c1.1,0,2,0.9,2,2v2C40,63.1,39.1,64,38,64 M30,60v2h8l0-2H30z
        "/>
    <path d="M38,60h-8c-1.1,0-2-0.9-2-2v-2c0-1.1,0.9-2,2-2h8c1.1,0,2,0.9,2,2v2C40,59.1,39.1,60,38,60 M30,56v2h8l0-2H30z
        "/>
    <path d="M38,56h-8c-1.1,0-2-0.9-2-2v-2c0-1.1,0.9-2,2-2h8c1.1,0,2,0.9,2,2v2C40,55.1,39.1,56,38,56 M30,52v2h8l0-2H30z
        "/>
    <path d="M48,64h-8c-1.1,0-2-0.9-2-2v-2c0-1.1,0.9-2,2-2h8c1.1,0,2,0.9,2,2v2C50,63.1,49.1,64,48,64 M40,60v2h8l0-2H40z
        "/>
    <path d="M48,60h-8c-1.1,0-2-0.9-2-2v-2c0-1.1,0.9-2,2-2h8c1.1,0,2,0.9,2,2v2C50,59.1,49.1,60,48,60 M40,56v2h8l0-2H40z
        "/>
    <path d="M48,56h-8c-1.1,0-2-0.9-2-2v-2c0-1.1,0.9-2,2-2h8c1.1,0,2,0.9,2,2v2C50,55.1,49.1,56,48,56 M40,52v2h8l0-2H40z
        "/>
    <path d="M48,52h-8c-1.1,0-2-0.9-2-2v-2c0-1.1,0.9-2,2-2h8c1.1,0,2,0.9,2,2v2C50,51.1,49.1,52,48,52 M40,48v2h8l0-2H40z
        "/>
    <path d="M48,48h-8c-1.1,0-2-0.9-2-2v-2c0-1.1,0.9-2,2-2h8c1.1,0,2,0.9,2,2v2C50,47.1,49.1,48,48,48 M40,44v2h8l0-2H40z
        "/>
    <path d="M58,64h-8c-1.1,0-2-0.9-2-2v-2c0-1.1,0.9-2,2-2h8c1.1,0,2,0.9,2,2v2C60,63.1,59.1,64,58,64 M50,60v2h8l0-2H50z
        "/>
    <path d="M58,60h-8c-1.1,0-2-0.9-2-2v-2c0-1.1,0.9-2,2-2h8c1.1,0,2,0.9,2,2v2C60,59.1,59.1,60,58,60 M50,56v2h8l0-2H50z
        "/>
    <path d="M58,56h-8c-1.1,0-2-0.9-2-2v-2c0-1.1,0.9-2,2-2h8c1.1,0,2,0.9,2,2v2C60,55.1,59.1,56,58,56 M50,52v2h8l0-2H50z
        "/>
    <path d="M58,52h-8c-1.1,0-2-0.9-2-2v-2c0-1.1,0.9-2,2-2h8c1.1,0,2,0.9,2,2v2C60,51.1,59.1,52,58,52 M50,48v2h8l0-2H50z
        "/>
    <path d="M58,48h-8c-1.1,0-2-0.9-2-2v-2c0-1.1,0.9-2,2-2h8c1.1,0,2,0.9,2,2v2C60,47.1,59.1,48,58,48 M50,44v2h8l0-2H50z
        "/>
    <path d="M58,44h-8c-1.1,0-2-0.9-2-2v-2c0-1.1,0.9-2,2-2h8c1.1,0,2,0.9,2,2v2C60,43.1,59.1,44,58,44 M50,40v2h8l0-2H50z
        "/>
    <path d="M58,40h-8c-1.1,0-2-0.9-2-2v-2c0-1.1,0.9-2,2-2h8c1.1,0,2,0.9,2,2v2C60,39.1,59.1,40,58,40 M50,36v2h8l0-2H50z
        "/>
    <path d="M58,30h-8c-1.1,0-2-0.9-2-2v-2c0-1.1,0.9-2,2-2h8c1.1,0,2,0.9,2,2v2C60,29.1,59.1,30,58,30 M50,26v2h8l0-2H50z
        "/>
    <rect x="51" y="14" width="2" height="8"/>
    <rect x="55" y="8" width="2" height="8"/>
    <rect x="51" y="10" width="2" height="2"/>
    <rect x="55" y="18" width="2" height="2"/>
</svg>
