<svg height="512" viewBox="0 0 480 480" width="512" xmlns="http://www.w3.org/2000/svg"><path d="M13.536 350l10.588-12A24.021 24.021 0 0 1 16 320V40c.015-13.248 10.752-23.985 24-24h400c13.248.015 23.985 10.752 24 24v280c-.015 13.248-10.752 23.985-24 24H304v16h136c22.081-.025 39.975-17.919 40-40V40c-.025-22.081-17.919-39.975-40-40H40C17.919.025.025 17.919 0 40v280a40.035 40.035 0 0 0 13.536 30z"/><path d="M40 32h16v16H40zm32 0h16v16H72zm32 0h16v16h-16zM40 64h400v16H40zm344 48c-30.928 0-56 25.072-56 56s25.072 56 56 56 56-25.072 56-56c-.035-30.913-25.086-55.965-56-56zm0 96c-22.091 0-40-17.909-40-40s17.909-40 40-40 40 17.909 40 40c-.025 22.081-17.919 39.975-40 40z"/><path d="M402.343 146.343L376 172.687l-10.343-10.344-11.314 11.314 16 16a8 8 0 0 0 11.314 0l32-32zM344 240h80v16h-80zm0 32h80v16h-80zM240 112c-30.928 0-56 25.072-56 56s25.072 56 56 56 56-25.072 56-56c-.035-30.913-25.086-55.965-56-56zm0 96c-22.091 0-40-17.909-40-40s17.909-40 40-40 40 17.909 40 40c-.025 22.081-17.919 39.975-40 40z"/><path d="M258.343 146.343L232 172.687l-10.343-10.344-11.314 11.314 16 16a8 8 0 0 0 11.314 0l32-32zM200 240h80v16h-80zm0 32h80v16h-80zM96 128a39.97 39.97 0 0 1 33.341 17.915l13.324-8.857c-17.085-25.776-51.83-32.822-77.606-15.738A55.995 55.995 0 0 0 40 168c0 3.124.259 6.243.774 9.325l15.78-2.648A40.477 40.477 0 0 1 56 168c.025-22.081 17.919-39.975 40-40z"/><path d="M8 480h224a7.934 7.934 0 0 0 3.688-.906c24.485-3.736 46.912-18.828 57.422-39.094H336a8 8 0 0 0 5.657-2.343L352 427.313l10.343 10.344A8 8 0 0 0 368 440h16a8 8 0 0 0 5.657-2.343L400 427.313l10.343 10.344A8 8 0 0 0 416 440h16a8 8 0 0 0 6.656-3.562l16-24a8 8 0 0 0 0-8.876l-16-24A8 8 0 0 0 432 376H293.11c-12.171-23.46-40.3-40-69.11-40a71.585 71.585 0 0 0-39.977 12.152l-5.472-2.179a19.123 19.123 0 0 1-2.2-1.016 2.486 2.486 0 0 0-.2-.1c-14.547-7.398-20.342-25.188-12.944-39.735a29.583 29.583 0 0 1 4.325-6.317A63.743 63.743 0 0 0 184 256v-29.68c0-25.542-14.446-49.119-36.777-60.053A60.726 60.726 0 0 0 122.016 160a62.795 62.795 0 0 0-24.311 4.013 60.757 60.757 0 0 0-18.154 10.45A64.201 64.201 0 0 0 56 224v32a64.175 64.175 0 0 0 16.475 42.814c9.034 10.1 10.041 25.05 2.442 36.269-.034.049-.067.1-.1.15a27.102 27.102 0 0 1-10.917 9.592 6.147 6.147 0 0 0-.255.132c-.711.385-1.446.724-2.2 1.016l-.1.038L25.084 360.5A39.93 39.93 0 0 0 0 397.68V472a8 8 0 0 0 8 8zm216-128c24.175 0 48.5 15.048 56.585 35a7.999 7.999 0 0 0 7.415 5h139.719l10.666 16-10.666 16h-8.406l-13.656-13.657a8 8 0 0 0-11.314 0L380.687 424h-9.374l-13.656-13.657a8 8 0 0 0-11.314 0L332.687 424H288a7.999 7.999 0 0 0-7.415 5c-8.084 19.956-32.41 35-56.585 35-30.928 0-56-25.072-56-56s25.072-56 56-56zM16 397.68a23.985 23.985 0 0 1 15.049-22.331l36.193-14.462a34.897 34.897 0 0 0 3.862-1.775 43.5 43.5 0 0 0 17.068-15.068c11.722-17.318 10.145-40.394-3.825-55.956a46.819 46.819 0 0 1-7.659-11.477l-.045-.094A46.724 46.724 0 0 1 72 256v-32a48.205 48.205 0 0 1 17.802-37.249A44.915 44.915 0 0 1 103.31 179a46.836 46.836 0 0 1 18.2-3.007 44.883 44.883 0 0 1 18.647 4.629C157.073 188.905 168 206.841 168 226.32V256a47.768 47.768 0 0 1-12.326 32.066c-16.818 18.707-15.286 47.506 3.422 64.324a45.533 45.533 0 0 0 9.771 6.71c.537.287 1.076.547 1.612.8-26.57 29.485-24.207 74.926 5.278 101.495a72.2 72.2 0 0 0 3.058 2.605H16z"/><path d="M208 432c13.255 0 24-10.745 24-24s-10.745-24-24-24-24 10.745-24 24c.015 13.249 10.751 23.985 24 24zm0-32a8 8 0 1 1-8 8 8.01 8.01 0 0 1 8-8z"/></svg>