<svg xmlns="http://www.w3.org/2000/svg" width="86" height="102.4" viewBox="0 0 86 102.4"><path d="M81.1 15.5L70.5 4.9v.4l10.2 10.2z"/><path d="M0 0v93.4l9 9 8.5-8.5 8.5 8.5 8.5-8.5 8.5 8.5 8.5-8.5 8.5 8.5 8.5-8.5 8.5 8.5 9-9V18.5h-3v73.7l-6 6-8.5-8.5-8.5 8.5-8.5-8.5-8.5 8.5-8.5-8.5-8.5 8.5-8.5-8.5L9 98.2l-6-6V3h64.5V0z"/><path d="M80.7 15.5H70.5V5.3L68.2 3h-.7v15.5H83v-.7z"/><path d="M67.5 0v3h.7l2.3 2.3v-.4l10.6 10.6h-.4l2.3 2.3v.7h3v-1.9L69.4 0zM22.015 29.728l1.697-1.697 13.294 13.294-1.697 1.697zM19.2 56.3h48.3v2.4H19.2z"/><path d="M22.086 41.253l13.293-13.294 1.697 1.697L23.783 42.95zm26.837-11.505l1.697-1.697 13.293 13.294-1.697 1.697z"/><path d="M48.993 41.272l13.293-13.294 1.697 1.697L50.69 42.97zM65.4 58.6V67c0 2.7-2.2 4.9-4.9 4.9s-4.9-2.2-4.9-4.9v-8.4h-2.1V67c0 3.9 3.2 7.1 7.1 7.1 3.9 0 7.1-3.2 7.1-7.1v-8.4h-2.3z"/><path d="M58.5 57.5h2v6h-2z"/></svg>