<svg xmlns="http://www.w3.org/2000/svg" viewBox="0 0 25.771 25.771"><path d="M24.171 13.728v9.8h-18.8v-9.8h18.8m1.6-1.6h-22v13h22v-13z" fill="#030104"/><g fill="#030104"><path d="M19.771 12.128l2.252 2.252c-.017.083-.05.16-.05.248 0 .717.581 1.297 1.298 1.297.088 0 .164-.033.247-.049l2.253 2.252v-6h-6z"/><circle cx="21.271" cy="18.628" r="1.298"/><ellipse cx="14.771" cy="18.628" rx="3.926" ry="3.414"/><circle cx="8.271" cy="18.628" r="1.297"/><path d="M3.771 18.128l2.252-2.252c.083.017.16.05.248.05.717 0 1.297-.581 1.297-1.298 0-.088-.033-.164-.05-.247l2.253-2.253h-6v6zm3.798 4.5c0-.717-.581-1.297-1.298-1.297-.088 0-.164.033-.247.049l-2.253-2.252v6h6l-2.252-2.252c.017-.083.05-.161.05-.248zm15.702-1.298c-.717 0-1.297.581-1.297 1.298 0 .088.033.164.05.247l-2.253 2.253h6v-6l-2.252 2.252c-.083-.017-.16-.05-.248-.05z"/></g><g fill="#030104"><circle cx="18.473" cy="8.505" r="1.297"/><path d="M2.271 12.128a1.5 1.5 0 0 1 1.5-1.5h.82l.037-.128 11.577-6.34.885.258c.025.08.034.164.077.241.344.63 1.132.859 1.762.515.076-.042.128-.107.191-.162l.887.26 2.017 3.682-.259.886c-.079.024-.163.033-.24.075-.293.16-.488.422-.591.713h3.831l-2.586-4.723h.001L19.297.643l-5.264 2.882h.001L5.263 8.328 0 11.21l2.271 4.147v-3.229z"/><path d="M11.131 8.634a4.231 4.231 0 0 0-1.85 1.994h7.233a2.967 2.967 0 0 0-.299-.885c-.907-1.654-3.182-2.15-5.084-1.109z"/></g></svg>