<svg height="512" viewBox="0 0 209.513 209.513" width="512" xmlns="http://www.w3.org/2000/svg"><path d="M208.448 193.028l-14.694-14.184 2.423-2.423a3.49 3.49 0 0 0 0-4.938c-11.712-11.712-16.174-18.395-9.879-24.691a3.49 3.49 0 0 0 0-4.938L68.34 23.895 23.895 68.34l117.959 117.959v.003a3.482 3.482 0 0 0 2.469 1.023c.894 0 1.788-.342 2.469-1.023l.007-.007c6.296-6.289 12.976-1.823 24.684 9.886.681.681 1.575 1.023 2.469 1.023s1.788-.342 2.469-1.023l2.469-2.469 9.547 9.547a3.48 3.48 0 0 0 3.611.831l15.116-5.238a3.503 3.503 0 0 0 1.284-5.824zm-87.255-89.298c-.681.681-1.575 1.023-2.469 1.023s-1.788-.342-2.469-1.023L77.844 65.319a3.49 3.49 0 0 1 0-4.938 3.49 3.49 0 0 1 4.938 0l38.411 38.411a3.496 3.496 0 0 1 0 4.938zm5.538 10.476a3.49 3.49 0 0 1 0-4.938 3.49 3.49 0 0 1 4.938 0l13.968 13.967a3.49 3.49 0 0 1 0 4.938c-.681.681-1.575 1.023-2.469 1.023s-1.788-.342-2.469-1.023zm47.213 74.569c-5.049-4.945-11.205-10.388-17.672-11.96l10.27-10.27 10.273-10.27c1.571 6.463 7.015 12.623 11.96 17.672l-2.476 2.476-4.941 4.938zm-97.123 13.751H3.492a3.493 3.493 0 0 0 0 6.984h73.329a3.493 3.493 0 0 0 0-6.984zm27.935 0H90.789a3.493 3.493 0 0 0 0 6.984h13.968a3.493 3.493 0 0 0-.001-6.984zm62.854 0h-48.886a3.493 3.493 0 0 0 0 6.984h48.886a3.493 3.493 0 0 0 0-6.984zM1.526 45.702c.321.482.691.932 1.107 1.355.024.024.042.056.066.084l.003.003 16.255 16.255 44.445-44.445-9.62-9.62-6.638-6.638c-3.6-3.593-9.456-3.59-13.049.007L2.706 34.091c-.042.042-.07.091-.112.136a9.229 9.229 0 0 0-1.061 1.303c-.052.08-.084.171-.136.255a9.145 9.145 0 0 0-1.393 4.836 9.17 9.17 0 0 0 1.418 4.878c.038.063.062.137.104.203z"/></svg>