<svg xmlns="http://www.w3.org/2000/svg" width="60" height="64" viewBox="0 0 60 64"><path d="M22 42c-2.2 0-4-1.8-4-4h2c0 1.1.9 2 2 2s2-.9 2-2c0-.6-1.4-1.6-2.4-2.1-.6-.3-3.6-1.7-3.6-3.9s1.8-4 4-4 4 1.8 4 4h-2c0-1.1-.9-2-2-2s-2 .9-2 2c0 .6 1.4 1.6 2.4 2.1.6.3 3.6 1.7 3.6 3.9s-1.8 4-4 4"/><path d="M21 26h2v3h-2zm0 15h2v3h-2zm7-7h2v2h-2zm-14 0h2v2h-2z"/><path d="M26 64H7c-3.9 0-7-3.1-7-7V41c0-17.6 7.7-21.8 12.8-24.5 1.4-.8 2.7-1.4 3.5-2.2l1.4 1.4c-1 1-2.4 1.7-3.9 2.6C8.8 20.9 2 24.6 2 41v16c0 2.8 2.2 5 5 5h19v2zm18-24h-2c0-16.2-6.7-19.4-11.5-21.7-1.6-.8-3.1-1.5-4.2-2.6l1.4-1.4c.8.8 2.1 1.4 3.6 2.2C36.4 18.9 44 22.5 44 40"/><path d="M27 16H17c-1.1 0-2-.9-2-2v-2c0-1.1.9-2 2-2h10c1.1 0 2 .9 2 2v2c0 1.1-.9 2-2 2m-10-4v2h10v-2H17z"/><path d="M26 12h-8c-.4 0-.7-.2-.9-.6l-4-8c-.2-.5 0-1.1.4-1.3l4-2c.3-.1.6-.1.9 0L22 1.9 25.6.1c.3-.1.6-.1.9 0l4 2c.5.2.7.8.4 1.3l-4 8c-.2.4-.5.6-.9.6m-7.4-2h6.8l3.3-6.6L26 2.1l-3.6 1.8c-.3.1-.6.1-.9 0L18 2.1l-2.7 1.3 3.3 6.6zm9.4 4v-2c1.7 0 3-1.3 3-3h2c0 2.8-2.2 5-5 5m-12 0c-2.8 0-5-2.2-5-5h2c0 1.7 1.3 3 3 3v2zm6 34c-7.2 0-13-5.8-13-13s5.8-13 13-13 13 5.8 13 13-5.8 13-13 13m0-24c-6.1 0-11 4.9-11 11s4.9 11 11 11 11-4.9 11-11-4.9-11-11-11m16 40h-8c-1.1 0-2-.9-2-2v-2c0-1.1.9-2 2-2h8c1.1 0 2 .9 2 2v2c0 1.1-.9 2-2 2m-8-4v2h8v-2h-8z"/><path d="M38 60h-8c-1.1 0-2-.9-2-2v-2c0-1.1.9-2 2-2h8c1.1 0 2 .9 2 2v2c0 1.1-.9 2-2 2m-8-4v2h8v-2h-8z"/><path d="M38 56h-8c-1.1 0-2-.9-2-2v-2c0-1.1.9-2 2-2h8c1.1 0 2 .9 2 2v2c0 1.1-.9 2-2 2m-8-4v2h8v-2h-8zm18 12h-8c-1.1 0-2-.9-2-2v-2c0-1.1.9-2 2-2h8c1.1 0 2 .9 2 2v2c0 1.1-.9 2-2 2m-8-4v2h8v-2h-8z"/><path d="M48 60h-8c-1.1 0-2-.9-2-2v-2c0-1.1.9-2 2-2h8c1.1 0 2 .9 2 2v2c0 1.1-.9 2-2 2m-8-4v2h8v-2h-8z"/><path d="M48 56h-8c-1.1 0-2-.9-2-2v-2c0-1.1.9-2 2-2h8c1.1 0 2 .9 2 2v2c0 1.1-.9 2-2 2m-8-4v2h8v-2h-8z"/><path d="M48 52h-8c-1.1 0-2-.9-2-2v-2c0-1.1.9-2 2-2h8c1.1 0 2 .9 2 2v2c0 1.1-.9 2-2 2m-8-4v2h8v-2h-8z"/><path d="M48 48h-8c-1.1 0-2-.9-2-2v-2c0-1.1.9-2 2-2h8c1.1 0 2 .9 2 2v2c0 1.1-.9 2-2 2m-8-4v2h8v-2h-8zm18 20h-8c-1.1 0-2-.9-2-2v-2c0-1.1.9-2 2-2h8c1.1 0 2 .9 2 2v2c0 1.1-.9 2-2 2m-8-4v2h8v-2h-8z"/><path d="M58 60h-8c-1.1 0-2-.9-2-2v-2c0-1.1.9-2 2-2h8c1.1 0 2 .9 2 2v2c0 1.1-.9 2-2 2m-8-4v2h8v-2h-8z"/><path d="M58 56h-8c-1.1 0-2-.9-2-2v-2c0-1.1.9-2 2-2h8c1.1 0 2 .9 2 2v2c0 1.1-.9 2-2 2m-8-4v2h8v-2h-8z"/><path d="M58 52h-8c-1.1 0-2-.9-2-2v-2c0-1.1.9-2 2-2h8c1.1 0 2 .9 2 2v2c0 1.1-.9 2-2 2m-8-4v2h8v-2h-8z"/><path d="M58 48h-8c-1.1 0-2-.9-2-2v-2c0-1.1.9-2 2-2h8c1.1 0 2 .9 2 2v2c0 1.1-.9 2-2 2m-8-4v2h8v-2h-8z"/><path d="M58 44h-8c-1.1 0-2-.9-2-2v-2c0-1.1.9-2 2-2h8c1.1 0 2 .9 2 2v2c0 1.1-.9 2-2 2m-8-4v2h8v-2h-8z"/><path d="M58 40h-8c-1.1 0-2-.9-2-2v-2c0-1.1.9-2 2-2h8c1.1 0 2 .9 2 2v2c0 1.1-.9 2-2 2m-8-4v2h8v-2h-8zm8-6h-8c-1.1 0-2-.9-2-2v-2c0-1.1.9-2 2-2h8c1.1 0 2 .9 2 2v2c0 1.1-.9 2-2 2m-8-4v2h8v-2h-8zm1-12h2v8h-2zm4-6h2v8h-2zm-4 2h2v2h-2zm4 8h2v2h-2z"/></svg>