<svg xmlns="http://www.w3.org/2000/svg" viewBox="0 0 297 297"><path d="M240.833 0h-184C44.15 0 33.5 10.317 33.5 23v251c0 12.683 10.65 23 23.333 23H218.48l45.02-45.354V23c0-12.683-9.984-23-22.667-23zM49.5 274V23c0-3.859 3.474-7 7.333-7h184c3.859 0 6.667 3.141 6.667 7v217h-41v41H56.833c-3.859 0-7.333-3.141-7.333-7z"/><path d="M66.5 49h82v16h-82zm0 33h165v16h-165zm0 33h165v16h-165zm0 33h165v16h-165zm46.088 32.78L67.035 230H82.5v34h21v-25.632a8 8 0 1 1 16 0V264h22v-34h16.131l-45.043-49.22zm72.67 37.149l-18.265-19.411-11.652 10.964 30.663 32.589 45.65-54.96-12.308-10.222z"/></svg>