<svg height="496pt" viewBox="0 0 496 496" width="496pt" xmlns="http://www.w3.org/2000/svg"><path d="M472 16h-73.473C395.215 6.71 386.414 0 376 0H264c-10.414 0-19.215 6.71-22.527 16H168c-13.23 0-24 10.77-24 24v104h-27.246a56.046 56.046 0 0 0-27.793 7.383L45.87 176H0v144h53.574l33.89 22.594A55.783 55.783 0 0 0 118.528 352H144v120c0 13.23 10.77 24 24 24h304c13.23 0 24-10.77 24-24V40c0-13.23-10.77-24-24-24zM192 208h16c17.648 0 32-14.352 32-32s-14.352-32-32-32h-16V64h49.473c3.312 9.29 12.113 16 22.527 16h112c10.414 0 19.215-6.71 22.527-16H448v384H192zm64-184c0-4.414 3.586-8 8-8h112c4.414 0 8 3.586 8 8v32c0 4.414-3.586 8-8 8H264c-4.414 0-8-3.586-8-8zm-96 16c0-4.414 3.586-8 8-8h72v16h-64v96h-16zm-41.473 296a39.84 39.84 0 0 1-22.183-6.719L58.426 304H16V192h34.129l46.773-26.727A40.07 40.07 0 0 1 116.754 160H208c8.824 0 16 7.176 16 16s-7.176 16-16 16h-96v8c0 22.055-17.945 40-40 40v16c28.168 0 51.535-20.895 55.434-48H144v128zM480 472c0 4.414-3.586 8-8 8H168c-4.414 0-8-3.586-8-8V208h16v256h288V48h-64V32h72c4.414 0 8 3.586 8 8zm0 0"/><path d="M272 32h16v16h-16zm80 0h16v16h-16zm26.984 337.672l-27-7.711-.007-4.059C366.48 347.777 376 330.992 376 312v-16c0-30.871-25.129-56-56-56s-56 25.129-56 56v16c0 18.977 9.512 35.754 24 45.887v4.082l-26.992 7.703C243.93 374.559 232 390.375 232 408.145V432h176v-23.855c0-17.77-11.93-33.586-29.016-38.473zM280 312v-16c0-22.055 17.945-40 40-40s40 17.945 40 40v16c0 22.055-17.945 40-40 40s-40-17.945-40-40zm55.719 53.71L320 386.665l-15.719-20.953C309.273 367.176 314.543 368 320 368s10.727-.824 15.719-2.29zM392 416H248v-7.855c0-10.657 7.16-20.153 17.406-23.083l27.496-7.855L320 413.336l27.098-36.129 27.496 7.855C384.84 387.992 392 397.488 392 408.145zM208 96h16v16h-16zm32 0h192v16H240zm16 32h176v16H256zm0 32h176v16H256zm160 32h16v16h-16zm-160 0h144v16H256zm0 0"/></svg>