<svg xmlns="http://www.w3.org/2000/svg" width="62.6" height="64" viewBox="0 0 62.6 64"><path d="M41.5 15.3l-4.2-8.4V4.1c0-2.3-1.9-4.1-4.1-4.1H5.4C3.1 0 1.3 1.9 1.3 4.1V8h34.3l4 8H21.2l-5.5-6.1L0 10l6.2 6.8V64h50V17l6.4-7H46.3l-4.8 5.3zM35.2 6h-32V4.1C3.3 3 4.2 2 5.4 2h27.7c1.2 0 2.1 1 2.1 2.1V6zM4.5 12h10.3l3.7 4.1H8.2L4.5 12zm15.7 50h-12V18h12v44zm34 0h-32V18h32.1v44zm3.9-50.1L54.4 16H43.5l3.7-4.1h10.9z"/><path d="M27.2 42h22V28h-22v14zm2-12h18v10h-18V30zm-2 16h21.7v2H27.2zm0 4h17.7v2H27.2z"/><path d="M31.2 32h2v2h-2zm0 4h2v2h-2zm4-4h10v2h-10zm0 4h10v2h-10z"/></svg>