<svg xmlns="http://www.w3.org/2000/svg" xmlns:xlink="http://www.w3.org/1999/xlink" width="53" height="50" viewBox="0 0 53 50"><style>.tt0,.tt1{clip-path:url(#SVGID_2_T)}.tt0{stroke:#333;stroke-width:2;stroke-miterlimit:10;fill:none}.tt1{fill:#fff}.tt2,.tt3{clip-path:url(#SVGID_4_T)}.tt2{stroke:#333;stroke-width:2;stroke-miterlimit:10;fill:none}.tt3{fill:#fff}</style><defs><path id="SVGID_1_" d="M0 0h53v50H0z"/></defs><clipPath id="SVGID_2_T"><use xlink:href="#SVGID_1_" overflow="visible"/></clipPath><path class="tt0" d="M40 6V0m3.8 6.6l2.6-4.5m.3 7.5L51.2 7M48 14h5m-11 5v-6H4c-1.7 0-3 1.3-3 3"/><path class="tt1" d="M37.1 19L23 4.9 8.9 19"/><path class="tt0" d="M37.1 19L23 4.9 8.9 19"/><path class="tt1" d="M30 19l-4.9-4.9c-1.4 1.4-2.8 1.4-4.2 0L16 19"/><path class="tt0" d="M30 19l-4.9-4.9c-1.4 1.4-2.8 1.4-4.2 0L16 19"/><path class="tt0" d="M47 49H4c-1.7 0-3-1.3-3-3V16c0 1.7 1.3 3 3 3h43v30z"/><path class="tt1" d="M48 39H33.5c-3 0-5.5-2.5-5.5-5.5s2.5-5.5 5.5-5.5H48c1.1 0 2 .9 2 2v7c0 1.1-.9 2-2 2"/><path class="tt0" d="M48 39H33.5c-3 0-5.5-2.5-5.5-5.5s2.5-5.5 5.5-5.5H48c1.1 0 2 .9 2 2v7c0 1.1-.9 2-2 2z"/><path class="tt1" d="M32 33.5c0-1.4 1.1-2.5 2.5-2.5s2.5 1.1 2.5 2.5-1.1 2.5-2.5 2.5-2.5-1.1-2.5-2.5"/><circle class="tt0" cx="34.5" cy="33.5" r="2.5"/></svg>