<svg xmlns="http://www.w3.org/2000/svg" width="60" height="56" viewBox="0 0 60 56"><style>.st0,.st1{fill:none;stroke:#333;stroke-miterlimit:10}.st1{stroke-width:2}.st2{fill:#fff}.st3{fill:none;stroke:#333;stroke-width:2;stroke-linecap:round;stroke-linejoin:round;stroke-miterlimit:10}</style><path class="st0" d="M53 14H8c-1.1 0-2 .9-2 2v31h49V16c0-1.1-.9-2-2-2z"/><path class="st1" d="M6 46V16c0-1.1.9-2 2-2h45c1.1 0 2 .9 2 2v30"/><path class="st2" d="M59 4v24.1c0 1.6-1.3 2.9-2.9 2.9H37.9l-8.1 7.7c-.6.7-1.8.3-1.8-.6V31h-5c-1.7 0-3-1.4-3-3V4c0-1.7 1.3-3 3-3h33c1.7 0 3 1.3 3 3"/><path class="st1" d="M59 4v24.1c0 1.6-1.3 2.9-2.9 2.9H37.9l-8.1 7.7c-.6.7-1.8.3-1.8-.6V31h-5c-1.7 0-3-1.4-3-3V4c0-1.7 1.3-3 3-3h33c1.7 0 3 1.3 3 3z"/><path class="st3" d="M35 16l4 4 9-11"/><path class="st3" d="M47 16v8H30.9V8H44"/><path class="st1" d="M2 17v-1c0-3.3 2.7-6 6-6h9"/><path class="st2" d="M59 46H37l-1 1H24l-1-1H1v2c0 1.7 1.3 3 3 3h52c1.7 0 3-1.3 3-3v-2z"/><path class="st1" d="M59 46H37l-1 1H24l-1-1H1v2c0 1.7 1.3 3 3 3h52c1.7 0 3-1.3 3-3v-2zm-48 9h16"/></svg>