<svg xmlns="http://www.w3.org/2000/svg" xmlns:xlink="http://www.w3.org/1999/xlink" width="64" height="60" viewBox="0 0 64 60"><style>.pt0,.pt1,.pt2{fill:#222829}.pt1{clip-path:url(#SVGID_2_T1)}.pt2{clip-path:url(#SVGID_4_T)}</style><path class="pt0" d="M37.4 56l2-2H62v.6L58.6 58H5.4L2 54.6V54h22.6l2 2h10.8zm1.2-4l-2 2h-9.2l-2-2H0v3.4L4.6 60h54.8l4.6-4.6V52H38.6z"/><defs><path id="SVGID_1_" d="M0 0h64v60H0z"/></defs><clipPath id="SVGID_2_T1"><use xlink:href="#SVGID_1_" overflow="visible"/></clipPath><path class="pt1" d="M6 50H4V20c0-2.2 1.8-4 4-4h6v2H8c-1.1 0-2 .9-2 2v30zm52-17h2v17h-2z"/><path class="pt1" d="M56 48H8V20h6v2h-4v24h44V33h2zm-6-19h8v2h-8zM20 10h24v2H20zm0 4h24v2H20zm0 4h24v2H20z"/><path class="pt1" d="M18 44h-2V6c0-3.3 2.7-6 6-6h29v2H22c-2.2 0-4 1.8-4 4v38z"/><path class="pt1" d="M31 6h2v2h-2zm-4 0h2v2h-2zm8 0h2v2h-2zm13 38h-2V5c0-2.8 2.2-5 5-5s5 2.2 5 5v22c0 1.1.9 2 2 2s2-.9 2-2V8h-2V6h4v21c0 2.2-1.8 4-4 4s-4-1.8-4-4V5c0-1.7-1.3-3-3-3s-3 1.3-3 3v39zm-16-4c-2.2 0-4-1.8-4-4h2c0 1.1.9 2 2 2s2-.9 2-2c0-.6-1.4-1.6-2.4-2.1-.6-.3-3.6-1.7-3.6-3.9s1.8-4 4-4 4 1.8 4 4h-2c0-1.1-.9-2-2-2s-2 .9-2 2c0 .6 1.4 1.6 2.4 2.1.6.3 3.6 1.7 3.6 3.9s-1.8 4-4 4"/><path class="pt1" d="M31 24h2v3h-2zm0 15h2v3h-2zm7-7h2v2h-2zm-14 0h2v2h-2z"/></svg>