<svg viewBox="0 0 512 512" xmlns="http://www.w3.org/2000/svg"><path d="M410.9 186.6c0-.1 0-.2-.1-.2 0-.2-.1-.3-.1-.5 0-.1-.1-.3-.1-.4 0-.1-.1-.2-.1-.3-.2-.5-.4-.9-.7-1.3l-65-95.5c-1.4-2.1-3.7-3.3-6.2-3.3H173.5c-2.5 0-4.8 1.2-6.2 3.3l-65 95.5c-.3.4-.5.9-.7 1.3 0 .1-.1.2-.1.3-.1.1-.1.3-.1.4 0 .2-.1.3-.1.5 0 .1 0 .2-.1.2-.1.5-.2 1-.2 1.5v231.3c0 4.1 3.4 7.5 7.5 7.5h295.1c4.1 0 7.5-3.4 7.5-7.5V188.1c-.1-.5-.1-1-.2-1.5zm-21.6-6h-96.9l-9.1-80.5h51.2l54.8 80.5zm-155.6 15h44.5v55L260.3 238c-1.3-.9-2.8-1.4-4.3-1.4s-3 .5-4.3 1.4l-17.9 12.6v-55zm34.5-95.5l9.1 80.5h-42.7l9.1-80.5h24.5zm-90.7 0h51.2l-9.1 80.5h-96.9l54.8-80.5zM396 411.9H116V195.6h102.8V265c0 2.8 1.6 5.4 4 6.7 2.5 1.3 5.5 1.1 7.8-.5l25.4-17.9 25.4 17.9c1.3.9 2.8 1.4 4.3 1.4 1.2 0 2.4-.3 3.5-.8 2.5-1.3 4-3.9 4-6.7v-69.4H396v216.2z"/><path d="M201 330.4h-53.2c-4.1 0-7.5 3.4-7.5 7.5s3.4 7.5 7.5 7.5H201c4.1 0 7.5-3.4 7.5-7.5s-3.4-7.5-7.5-7.5zm-26.6 31.5h-26.6c-4.1 0-7.5 3.4-7.5 7.5s3.4 7.5 7.5 7.5h26.6c4.1 0 7.5-3.4 7.5-7.5s-3.4-7.5-7.5-7.5z"/></svg>