<svg xmlns="http://www.w3.org/2000/svg" width="64" height="64" viewBox="0 0 64 64"><path d="M62 12h2v30h-2zM56 0v2h6v6h2V0zM0 0v15h2V2h50V0zm4 36h56v2H4z"/><path d="M44 18.6l-10-10-14 14-11-11-9 9V42h2V21.4l7-7 11 11 14-14 10 10L63.7 1.7 62.3.3zM21 59.1l-7.5-4.2 1-1.8 6.5 3.8 7.6-3.8.8 1.8z"/><path d="M61 64H3c-1.6 0-3-1.8-3-4v-2.6l7.5-4.3 1 1.7L2 58.6V60c0 1.2.7 2 1 2h58c.3 0 1-.8 1-2v-1.4l-6.5-3.7 1-1.7 7.5 4.3V60c0 2.2-1.4 4-3 4"/><path d="M43 59.1l-8.4-4.2.8-1.8 7.6 3.8 6.5-3.8 1 1.8zM11 56c-3.4 0-6-3.2-6-7.5 0-3 .7-6.5 6-6.5s6 3.5 6 6.5c0 4.3-2.6 7.5-6 7.5m0-12c-3 0-4 1.1-4 4.5 0 2.7 1.4 5.5 4 5.5s4-2.8 4-5.5c0-3.4-1-4.5-4-4.5"/><path d="M32 56c-3.4 0-6-3.2-6-7.5 0-3 .7-6.5 6-6.5s6 3.5 6 6.5c0 4.3-2.6 7.5-6 7.5m0-12c-3 0-4 1.1-4 4.5 0 2.7 1.4 5.5 4 5.5s4-2.8 4-5.5c0-3.4-1-4.5-4-4.5m21 12c-3.4 0-6-3.2-6-7.5 0-3 .7-6.5 6-6.5s6 3.5 6 6.5c0 4.3-2.6 7.5-6 7.5m0-12c-3 0-4 1.1-4 4.5 0 2.7 1.4 5.5 4 5.5s4-2.8 4-5.5c0-3.4-1-4.5-4-4.5M20 58h2v3h-2zm22 0h2v3h-2zM8 32h8v2H8zm0-4h8v2H8zm10 4h8v2h-8zm0-4h8v2h-8zm10 4h8v2h-8zm0-4h8v2h-8zm0-4h8v2h-8zm0-4h8v2h-8zm10 12h8v2h-8zm0-4h8v2h-8zm0-4h8v2h-8zm10 8h8v2h-8zm0-4h8v2h-8zm0-4h8v2h-8zm0-4h8v2h-8zM8 24h8v2H8z"/></svg>