<svg xmlns="http://www.w3.org/2000/svg" width="64" height="58" viewBox="0 0 64 58"><path d="M34 34H6V10h28v24zM8 32h24V12H8v20z"/><path d="M7 28H2V16h5v2H4v8h3zm23 10H10v-5h2v3h16v-3h2z"/><path d="M13 37.1L16.1 58H26V37h-2v19h-6.1L15 36.9zM63 44h-4c-.6 0-1-.4-1-1V1c0-.6.4-1 1-1h4c.6 0 1 .4 1 1v42c0 .6-.4 1-1 1m-3-2h2V2h-2v40z"/><path d="M35.64 10.07L58.658.055l.798 1.834L36.44 11.904zm-.002 23.861l.797-1.834 23.02 10.007-.798 1.834zM0 21h3v2H0zm30-1H10v-6h20v6zm-18-2h16v-2H12v2zm3 4h2v2h-2zm4 0h2v2h-2zm4 0h2v2h-2zm7 24h-5v-2h3v-2h-3v-2h5zm-8 2h3v2h-3zm0 4h3v2h-3zm14-31h20v2H36z"/></svg>