<svg xmlns="http://www.w3.org/2000/svg" viewBox="0 0 200 200"><path d="M99.5 92.2c-18.7 0-33.9-15.2-33.9-33.9s15.2-33.9 33.9-33.9 33.9 15.2 33.9 33.9c-.1 18.6-15.2 33.8-33.9 33.9zm0-57.9c-13.2 0-23.9 10.7-23.9 23.9s10.7 23.9 23.9 23.9 23.9-10.7 23.9-23.9-10.7-23.9-23.9-23.9zm-50 121c-2.8 0-5-2.2-5-5v-20.5c0-19 24.2-33.9 55-33.9 22.4 0 42.4 8.1 50.8 20.7 1.5 2.3 2.1 6.3-.2 7.8-2.3 1.5-5.3.9-6.8-1.4-6.5-9.7-24.9-17.1-43.8-17.1-24.4 0-45 10.9-45 23.9v20.5c0 2.8-2.3 5-5 5zM180.7 85H150c-2.8 0-5-2.2-5-5s2.2-5 5-5h30.7c2.8 0 5 2.2 5 5s-2.2 5-5 5z"/><path d="M166.3 100.3c-2.8 0-5-2.2-5-5V64.7c0-2.8 2.2-5 5-5s5 2.2 5 5v30.7c0 2.7-2.2 4.9-5 4.9zm-21.6 50v-20.5c0-13-20.6-23.9-45-23.9-18.9 0-37.4 6.1-43.9 15.8-1.5 2.2-3.2 3.3-5.4 1.8-2.3-1.5-3-4.6-1.5-6.9 8.4-12.6 28.4-20.7 50.8-20.7 30.8 0 55 14.9 55 33.9v20.5c0 2.8-2.2 5-5 5s-5-2.2-5-5z"/></svg>