<svg xmlns="http://www.w3.org/2000/svg" width="64" height="46" viewBox="0 0 64 46"><path d="M8 8v38h6v-2h-4V10h52v34h-4v2h6V8z"/><path d="M29 44h14v2H29zM9 42H4V4h56v5h-2V6H6v34h3z"/><path d="M0 0v38h5v-2H2V2h52v3h2V0z"/><path d="M32 36H16V26c0-2.2 1.8-4 4-4v2c-1.1 0-2 .9-2 2v8h12v-8c0-1.1-.9-2-2-2v-2c2.2 0 4 1.8 4 4v10z"/><path d="M24 24c-2.8 0-5-2.2-5-5s2.2-5 5-5 5 2.2 5 5-2.2 5-5 5m0-8c-1.7 0-3 1.3-3 3s1.3 3 3 3 3-1.3 3-3-1.3-3-3-3m-1 10h2v2h-2zm0 4h2v2h-2zm13-4h11v2H36zm0-6h20v2H36zm13 6h7v2h-7zm-13 4h20v2H36zm0 4h8v2h-8zm9-18h2v2h-2zm4 0h2v2h-2zm-8 0h2v2h-2zM27 46h-4v-2h2v-2h-7v2h2v2h-4v-6h11zm29 0h-4v-2h2v-2h-7v2h2v2h-4v-6h11z"/></svg>