<svg xmlns="http://www.w3.org/2000/svg" width="60" height="63" viewBox="0 0 60 63"><path d="M0 17v32h42v-2H2V19h36v-2zm56 0v2h2v28h-2v2h4V17zm-8 44h2v2h-2zm-3-22h8v2h-8zm0 12h8v2h-8zm3-8h2v2h-2zm0 4h2v2h-2z"/><path d="M49 62.4l-5-5V9h-1c-.6 0-1 .4-1 1v13h-2V10c0-1.7 1.3-3 3-3h11v50.4l-5 5zm-3-5.8l3 3 3-3V9h-6v47.6zM11 40c-2.2 0-4-1.8-4-4h2c0 1.1.9 2 2 2s2-.9 2-2c0-.7-1.4-1.6-2.4-2.1C10 33.6 7 32.2 7 30s1.8-4 4-4 4 1.8 4 4h-2c0-1.1-.9-2-2-2s-2 .9-2 2c0 .7 1.4 1.6 2.4 2.1.6.3 3.6 1.7 3.6 3.9s-1.8 4-4 4"/><path d="M10 24h2v3h-2zm0 15h2v3h-2zm10-18h10v2H20zm0 6h22v2H20zm0 4h22v2H20zm0 4h22v2H20zm0 8h4v2h-4zm6 0h8v2h-8zM4 21h2v2H4zm0 22h2v2H4zM0 13h38v2H0zm56 0h4v2h-4zM0 9h38v2H0zm56 0h4v2h-4zm-4-1h-2V2h-2v6h-2V0h6z"/></svg>