<svg height="512" viewBox="0 0 64 64" width="512" xmlns="http://www.w3.org/2000/svg"><path d="M49 8H17c-4.411 0-8 3.589-8 8v32c0 4.411 3.589 8 8 8h8a2 2 0 0 0 0-4h-8c-2.206 0-4-1.794-4-4V16c0-2.206 1.794-4 4-4h32c2.206 0 4 1.794 4 4v32c0 2.206-1.794 4-4 4h-8a2 2 0 0 0 0 4h8c4.411 0 8-3.589 8-8V16c0-4.411-3.589-8-8-8z"/><path d="M42.43 36.394a2 2 0 0 0-.037-2.828l-6.567-6.396c-.755-.756-1.76-1.172-2.829-1.172s-2.073.416-2.81 1.153l-6.586 6.414a2 2 0 1 0 2.792 2.865l6.624-6.414 6.585 6.414a2 2 0 0 0 2.828-.036z"/></svg>