<svg xmlns="http://www.w3.org/2000/svg" width="44.7" height="25.7" viewBox="0 0 44.7 25.7"><path d="M14.6 1.7c.2-.5.6-.9 1.1-1.1.9-.5 1.9-.6 2.9-.6 1.4 0 2.9.1 4.3.2.6 0 1.3.1 1.9.3.9.4 1.4 1.1 1.4 2 0 .8-.1 1.6-.1 2.3-.1 1.7-.1 3.3-.1 5 0 .5.2 1.1.4 1.6 0 .1.1.3.2.4.3.5.5.5 1 .2.9-.6 1.6-1.4 2.2-2.3.8-1.1 1.6-2.3 2.2-3.7l1.8-3.9c.3-.7.7-.9 1.5-.9h8.1c.9 0 1.5.7 1.3 1.6-.2.9-.6 1.7-1.1 2.5-1.3 2.2-2.8 4.2-4.5 6.1-.6.7-1.1 1.4-1.4 2.3-.3 1-.1 1.8.6 2.5 1.3 1.2 2.5 2.5 3.8 3.8.7.8 1.4 1.6 2 2.4.4.5.7 1.2.6 1.9-.1.8-.5 1.2-1.3 1.2-1.5.1-3 .1-4.6.2-.9 0-1.8.1-2.7.1-.7 0-1.3-.2-1.9-.6-1-.5-1.8-1.3-2.5-2-.8-.8-1.6-1.6-2.2-2.6-.4-.6-1.5-.9-2.1-.7-.5.2-.8.6-.8 1.1-.1.9-.1 1.7-.2 2.6-.1 1.1-.8 1.7-1.8 1.9-2.1.3-4.2.2-6.3-.2-1.5-.3-2.8-1-4.1-1.9-1.7-1.2-3.2-2.7-4.5-4.3-.7-.8-1.3-1.7-1.9-2.6-1.9-2.9-3.8-5.8-5.4-8.9C1.4 6.1.6 4.7.2 3 .1 2.7.1 2.3 0 1.9c0-.2 0-.3.2-.4.4-.1.9-.3 1.3-.4h4.3c.6 0 1.2.1 1.9 0 .8 0 1.4.3 1.7 1 .4.7.7 1.4 1 2.1 1.2 2.5 2.5 5 4.3 7.2.3.3.6.6 1 .8.4.3.8.1 1.1-.3.3-.5.5-1.1.5-1.7 0-1.7.1-3.4.1-5.1 0-1.7-.9-2.9-2.5-3.5-.2.2-.2.1-.3.1"/></svg>